<svg xmlns="http://www.w3.org/2000/svg"
 width="1000" height="1000" viewBox="0 0 1000 1000"
 preserveAspectRatio="xMidYMid meet">
<circle cx="500" cy="500" r="450" fill="black" />
<circle cx="500" cy="500" r="375" fill="white" />
<circle cx="500" cy="500" r="350" fill="black" />
<path fill="white"
   d="M 500,550
      c 0,0 -100,290 0,300
        0,0 100,10 0,-300
      z" transform="rotate(240 500 500)" />
<path fill="white"
   d="M 500,550
      c 0,0 -100,290 0,300
        0,0 100,10 0,-300
      z" transform="rotate(120 500 500)" />
<path fill="white"
   d="M 500,550
      c 0,0 -100,290 0,300
        0,0 100,10 0,-300
      z" transform="rotate(0 500 500)" />
<circle cx="500" cy="500" r="70" fill="white" />
<circle cx="500" cy="500" r="50" fill="black" />
</svg>
