<?xml version="1.0" standalone="no"?>
<!DOCTYPE svg PUBLIC "-//W3C//DTD SVG 20010904//EN"
 "http://www.w3.org/TR/2001/REC-SVG-20010904/DTD/svg10.dtd">
<svg version="1.0" xmlns="http://www.w3.org/2000/svg"
 width="976pt" height="908pt" viewBox="0 0 976 908"
 preserveAspectRatio="xMidYMid meet">

<g transform="translate(0.000000,908.000000) scale(0.100000,-0.100000)"
fill="#000000" stroke="none">
<path d="M4540 9045 c-787 -73 -1490 -323 -2135 -759 -1054 -712 -1761 -1846
-1935 -3104 -60 -438 -52 -950 21 -1377 129 -748 445 -1454 916 -2045 357
-447 814 -837 1310 -1119 151 -86 448 -225 598 -280 77 -29 156 -58 176 -66
122 -47 442 -127 649 -164 819 -145 1692 -57 2445 247 603 243 1112 584 1565
1048 530 544 900 1182 1109 1914 185 650 218 1388 90 2059 -363 1908 -1928
3384 -3844 3625 -299 38 -692 46 -965 21z m725 -716 c72 -6 196 -22 277 -35
1502 -248 2707 -1365 3068 -2844 70 -288 101 -555 101 -880 0 -609 -125 -1146
-393 -1688 -187 -377 -404 -681 -706 -985 -306 -309 -621 -536 -1007 -727
-532 -263 -1077 -390 -1675 -390 -602 0 -1140 126 -1685 395 -390 193 -694
413 -1010 730 -608 611 -979 1392 -1077 2265 -16 150 -16 620 0 770 86 763
362 1427 841 2020 109 135 396 422 531 531 532 430 1115 693 1778 803 318 53
606 63 957 35z"/>
<path d="M4755 8164 c-807 -50 -1510 -322 -2123 -824 -214 -175 -470 -448
-635 -676 -91 -127 -176 -264 -146 -237 13 11 54 37 90 57 331 181 838 37
1374 -390 138 -110 468 -439 604 -603 109 -131 305 -390 381 -503 25 -37 48
-66 51 -65 3 1 26 27 51 57 91 113 232 202 368 234 83 20 237 20 320 0 101
-23 202 -78 284 -155 40 -37 83 -84 97 -103 13 -20 27 -36 30 -36 3 0 30 35
59 78 621 891 1286 1440 1875 1548 105 19 292 14 366 -9 62 -20 140 -60 178
-92 17 -15 31 -24 31 -21 0 12 -104 171 -173 265 -603 820 -1515 1349 -2507
1456 -139 15 -467 26 -575 19z"/>
<path d="M1667 6101 c-176 -370 -282 -748 -328 -1171 -7 -63 -13 -227 -13
-365 0 -400 43 -697 153 -1055 232 -751 693 -1398 1331 -1867 365 -268 810
-475 1254 -584 138 -33 375 -74 486 -84 41 -3 89 -9 105 -12 28 -5 25 0 -41
68 -191 200 -277 476 -276 889 1 502 152 1070 464 1750 49 107 92 201 95 208
3 8 -5 12 -24 12 -49 0 -178 37 -243 69 -161 80 -283 224 -344 404 -37 111
-37 293 0 404 9 25 14 46 12 48 -2 2 -82 10 -178 19 -1190 111 -2053 491
-2317 1021 -55 110 -68 161 -68 278 0 59 0 107 -1 107 -1 0 -31 -63 -67 -139z"/>
<path d="M8124 6134 c0 -117 -18 -186 -75 -292 -284 -531 -1159 -905 -2364
-1013 -71 -6 -131 -12 -132 -13 -1 -1 7 -31 19 -66 32 -97 32 -288 0 -385 -81
-243 -286 -422 -532 -465 -36 -6 -70 -13 -77 -15 -8 -3 15 -61 66 -167 236
-493 393 -976 464 -1428 29 -184 31 -579 4 -715 -49 -250 -118 -400 -245 -536
l-70 -75 122 12 c800 79 1579 450 2161 1029 298 296 517 598 695 960 252 512
370 1018 370 1595 0 555 -112 1050 -352 1559 l-54 115 0 -100z"/>
<path d="M4865 4968 c-122 -16 -250 -110 -309 -226 -55 -108 -50 -282 10 -378
61 -98 150 -172 241 -199 96 -29 231 -14 321 37 52 29 129 105 159 155 103
175 51 410 -119 538 -86 65 -186 89 -303 73z"/>
</g>
</svg>
