<svg xmlns="http://www.w3.org/2000/svg"
 width="1000" height="1000" viewBox="0 0 1000 1000"
 preserveAspectRatio="xMidYMid meet">
<circle cx="500" cy="500" r="450" fill="black" />
<circle cx="500" cy="500" r="375" fill="white" />
<circle cx="500" cy="500" r="350" fill="black" />
<!--TODO: kekw rotorblyat-->
<circle cx="500" cy="500" r="70" fill="white" />
<circle cx="500" cy="500" r="50" fill="black" />
<g transform="scale(0.5) translate(500 500)">
<g transform="translate(-75 -75)">
<path fill="white" d="
M 500,500
c 0,0 -620,-140 -500,-310
  120,-170 500,310 500,310
z" transform="rotate(0 500 500)" />
</g>
<g transform="translate(75 -75)">
<path fill="white" d="
M 500,500
c 0,0 -620,-140 -500,-310
  120,-170 500,310 500,310
z" transform="rotate(120 500 500)" />
</g>
<g transform="translate(0 105)">
<path fill="white" d="
M 500,500
c 0,0 -620,-140 -500,-310
  120,-170 500,310 500,310
z" transform="rotate(-120 500 500)" />
</g>
</g>
</svg>
